<mxfile>
    <diagram name="Page-1" id="12e1b939-464a-85fe-373e-61e167be1490">
        <mxGraphModel dx="884" dy="337" grid="1" gridSize="10" guides="1" tooltips="1" connect="1" arrows="1" fold="1" page="1" pageScale="1.5" pageWidth="1169" pageHeight="826" background="#ffffff" math="0" shadow="0">
            <root>
                <mxCell id="0"/>
                <mxCell id="1" parent="0"/>
                <mxCell id="60da8b9f42644d3a-2" value="" style="whiteSpace=wrap;html=1;rounded=1;shadow=0;strokeWidth=8;fontSize=20;align=center;strokeColor=#FFFFFF;fillColor=#7EA6E0;" parent="1" vertex="1">
                    <mxGeometry x="316" y="405" width="280" height="430" as="geometry"/>
                </mxCell>
                <mxCell id="60da8b9f42644d3a-3" value="DECLARATIVE" style="text;html=1;strokeColor=none;fillColor=none;align=center;verticalAlign=middle;whiteSpace=wrap;rounded=0;shadow=0;fontSize=27;fontColor=#FFFFFF;fontStyle=1" parent="1" vertex="1">
                    <mxGeometry x="316" y="425" width="280" height="60" as="geometry"/>
                </mxCell>
                <mxCell id="60da8b9f42644d3a-4" value="- Manifests define desired state&lt;br&gt;- Technically the kubernetes YAML&amp;nbsp;&lt;br&gt;can be replaced by terraform as well" style="text;html=1;strokeColor=none;fillColor=none;align=center;verticalAlign=middle;whiteSpace=wrap;rounded=0;shadow=0;fontSize=14;fontColor=#000000;" parent="1" vertex="1">
                    <mxGeometry x="316" y="725" width="280" height="90" as="geometry"/>
                </mxCell>
                <mxCell id="60da8b9f42644d3a-6" value="" style="line;strokeWidth=2;html=1;rounded=0;shadow=0;fontSize=27;align=center;fillColor=none;strokeColor=#FFFFFF;" parent="1" vertex="1">
                    <mxGeometry x="336" y="485" width="240" height="10" as="geometry"/>
                </mxCell>
                <mxCell id="60da8b9f42644d3a-7" value="" style="line;strokeWidth=2;html=1;rounded=0;shadow=0;fontSize=27;align=center;fillColor=none;strokeColor=#FFFFFF;" parent="1" vertex="1">
                    <mxGeometry x="336" y="705" width="240" height="10" as="geometry"/>
                </mxCell>
                <mxCell id="60da8b9f42644d3a-17" value="" style="whiteSpace=wrap;html=1;rounded=1;shadow=0;strokeWidth=8;fontSize=20;align=center;strokeColor=#FFFFFF;fillColor=#67AB9F;" parent="1" vertex="1">
                    <mxGeometry x="596" y="405" width="280" height="430" as="geometry"/>
                </mxCell>
                <mxCell id="60da8b9f42644d3a-18" value="DECLARED STATE" style="text;html=1;strokeColor=none;fillColor=none;align=center;verticalAlign=middle;whiteSpace=wrap;rounded=0;shadow=0;fontSize=27;fontColor=#FFFFFF;fontStyle=1" parent="1" vertex="1">
                    <mxGeometry x="596" y="425" width="280" height="60" as="geometry"/>
                </mxCell>
                <mxCell id="60da8b9f42644d3a-19" value="- Kubernetes is actually a state engine&lt;br&gt;" style="text;html=1;strokeColor=none;fillColor=none;align=center;verticalAlign=middle;whiteSpace=wrap;rounded=0;shadow=0;fontSize=14;fontColor=#000000;" parent="1" vertex="1">
                    <mxGeometry x="596" y="725" width="280" height="90" as="geometry"/>
                </mxCell>
                <mxCell id="60da8b9f42644d3a-20" value="" style="line;strokeWidth=2;html=1;rounded=0;shadow=0;fontSize=27;align=center;fillColor=none;strokeColor=#FFFFFF;" parent="1" vertex="1">
                    <mxGeometry x="616" y="485" width="240" height="10" as="geometry"/>
                </mxCell>
                <mxCell id="60da8b9f42644d3a-21" value="" style="line;strokeWidth=2;html=1;rounded=0;shadow=0;fontSize=27;align=center;fillColor=none;strokeColor=#FFFFFF;" parent="1" vertex="1">
                    <mxGeometry x="616" y="705" width="240" height="10" as="geometry"/>
                </mxCell>
                <mxCell id="60da8b9f42644d3a-9" value="&lt;span&gt;&lt;font color=&quot;#000000&quot;&gt;State Files&lt;/font&gt;&lt;/span&gt;" style="html=1;shadow=0;align=center;verticalAlign=middle;shape=mxgraph.arrows2.stylisedArrow;dy=0.6;dx=40;notch=15;feather=0.4;rounded=0;strokeWidth=6;fontSize=14;strokeColor=#FFFFFF;fontColor=#FFFFFF;fillColor=#FF99CC;" parent="1" vertex="1">
                    <mxGeometry x="530" y="515" width="150" height="80" as="geometry"/>
                </mxCell>
                <mxCell id="ufEaAUU3OdP4tY2yotTK-5" style="edgeStyle=orthogonalEdgeStyle;rounded=0;orthogonalLoop=1;jettySize=auto;html=1;exitX=0.5;exitY=1;exitDx=0;exitDy=0;entryX=0.5;entryY=0;entryDx=0;entryDy=0;" parent="1" source="ufEaAUU3OdP4tY2yotTK-1" target="ufEaAUU3OdP4tY2yotTK-2" edge="1">
                    <mxGeometry relative="1" as="geometry"/>
                </mxCell>
                <mxCell id="ufEaAUU3OdP4tY2yotTK-1" value="Infrastructure" style="rounded=1;whiteSpace=wrap;html=1;fillColor=#99FFFF;fontColor=#000000;" parent="1" vertex="1">
                    <mxGeometry x="693" y="523" width="150" height="30" as="geometry"/>
                </mxCell>
                <mxCell id="ufEaAUU3OdP4tY2yotTK-6" style="edgeStyle=orthogonalEdgeStyle;rounded=0;orthogonalLoop=1;jettySize=auto;html=1;exitX=0.5;exitY=1;exitDx=0;exitDy=0;entryX=0.5;entryY=0;entryDx=0;entryDy=0;" parent="1" source="ufEaAUU3OdP4tY2yotTK-2" target="ufEaAUU3OdP4tY2yotTK-3" edge="1">
                    <mxGeometry relative="1" as="geometry"/>
                </mxCell>
                <mxCell id="ufEaAUU3OdP4tY2yotTK-2" value="Kubernetes Cluster" style="rounded=1;whiteSpace=wrap;html=1;fillColor=#99FFFF;fontColor=#000000;" parent="1" vertex="1">
                    <mxGeometry x="693" y="558" width="150" height="30" as="geometry"/>
                </mxCell>
                <mxCell id="ufEaAUU3OdP4tY2yotTK-3" value="Kubernetes Deployments" style="rounded=1;whiteSpace=wrap;html=1;fillColor=#99FFFF;fontColor=#000000;" parent="1" vertex="1">
                    <mxGeometry x="693" y="646" width="150" height="30" as="geometry"/>
                </mxCell>
                <mxCell id="ufEaAUU3OdP4tY2yotTK-7" value="Terraform Manifests" style="rounded=1;whiteSpace=wrap;html=1;fillColor=#99FFFF;fontColor=#000000;" parent="1" vertex="1">
                    <mxGeometry x="370" y="520" width="150" height="70" as="geometry"/>
                </mxCell>
                <mxCell id="ufEaAUU3OdP4tY2yotTK-8" value="Helm Chart" style="rounded=1;whiteSpace=wrap;html=1;fillColor=#99FFFF;fontColor=#000000;" parent="1" vertex="1">
                    <mxGeometry x="370" y="646" width="150" height="30" as="geometry"/>
                </mxCell>
                <mxCell id="ufEaAUU3OdP4tY2yotTK-12" value="&lt;font color=&quot;#000000&quot;&gt;YAML Deployment&lt;/font&gt;" style="html=1;shadow=0;align=center;verticalAlign=middle;shape=mxgraph.arrows2.stylisedArrow;dy=0.6;dx=40;notch=15;feather=0.4;rounded=0;strokeWidth=6;fontSize=14;strokeColor=#FFFFFF;fontColor=#FFFFFF;fillColor=#FF99CC;" parent="1" vertex="1">
                    <mxGeometry x="530" y="620" width="150" height="80" as="geometry"/>
                </mxCell>
            </root>
        </mxGraphModel>
    </diagram>
</mxfile>